<?xml version="1.0" standalone="no"?>
<!DOCTYPE svg PUBLIC "-//W3C//DTD SVG 20010904//EN"
 "http://www.w3.org/TR/2001/REC-SVG-20010904/DTD/svg10.dtd">
<svg version="1.0" xmlns="http://www.w3.org/2000/svg"
 width="2436.000000pt" height="2436.000000pt" viewBox="0 0 2436.000000 2436.000000"
 preserveAspectRatio="xMidYMid meet">
<metadata>
Created by potrace 1.14, written by Peter Selinger 2001-2017
</metadata>
<g transform="translate(0.000000,2436.000000) scale(0.100000,-0.100000)"
fill="#000000" stroke="none">
<path d="M11663 17795 c-55 -24 -125 -106 -178 -207 -18 -36 -35 -49 -35 -29
0 27 -123 176 -150 182 -94 21 -157 -27 -205 -155 -25 -66 -53 -190 -61 -266
-10 -93 -12 -126 -13 -172 -1 -46 -2 -46 -58 -78 -173 -98 -312 -219 -356
-311 -30 -64 -24 -119 19 -155 29 -25 110 -54 152 -54 l25 0 -29 -22 c-31 -24
-78 -66 -124 -110 -36 -34 -80 -109 -80 -135 0 -32 41 -62 90 -66 49 -4 181
15 251 36 l45 14 -6 -46 c-10 -79 -3 -205 15 -267 24 -82 82 -139 146 -142 99
-6 211 65 337 212 l33 38 17 -23 c40 -59 129 -141 179 -165 133 -65 220 8 269
227 8 37 12 268 5 323 l-6 50 80 40 c131 65 226 145 277 234 37 66 44 154 15
214 -22 47 -95 111 -152 135 -25 10 -45 24 -45 31 0 6 4 12 8 12 12 0 90 76
136 133 48 59 67 111 54 149 -23 64 -168 62 -369 -5 l-69 -23 -1 25 c-4 204
-51 346 -125 377 -41 17 -50 17 -91 -1z"/>
<path d="M21627 17025 c-22 -7 -50 -24 -64 -37 -35 -31 -93 -113 -123 -169
l-24 -47 -34 57 c-113 188 -229 198 -315 25 -46 -92 -88 -305 -88 -455 0 -30
-4 -60 -7 -66 -4 -6 -27 -21 -52 -34 -76 -40 -187 -118 -246 -171 -68 -63
-110 -123 -125 -180 -10 -37 -9 -49 5 -80 23 -49 96 -83 181 -87 16 -1 10 -10
-30 -44 -81 -69 -111 -100 -144 -146 -40 -56 -42 -103 -6 -127 42 -27 172 -22
281 11 27 8 54 15 59 15 6 0 10 -54 10 -143 1 -137 2 -144 30 -202 41 -81 81
-108 155 -103 83 6 143 41 252 149 l98 96 15 -24 c60 -90 188 -183 255 -183
42 0 95 26 114 55 35 54 56 97 61 128 4 17 11 52 16 77 10 44 13 261 5 331 -5
35 -3 36 48 58 105 43 219 128 277 207 112 151 71 297 -107 387 l-52 26 78 78
c138 138 166 234 78 262 -69 21 -170 5 -385 -62 -7 -2 -8 10 -14 113 -7 126
-51 240 -108 277 -39 26 -43 27 -94 8z"/>
<path d="M16923 14114 c-55 -38 -222 -170 -243 -194 -48 -51 -257 -214 -380
-296 -152 -100 -447 -236 -648 -299 -100 -31 -258 -73 -302 -80 -19 -3 -42 -8
-50 -10 -16 -5 -51 -11 -115 -20 -22 -4 -51 -8 -65 -10 -14 -2 -50 -7 -80 -10
-30 -3 -75 -8 -100 -10 -120 -15 -444 -20 -550 -10 -286 29 -516 128 -673 290
-21 22 -70 85 -110 140 -130 184 -282 350 -351 383 -79 39 -99 44 -149 40 -75
-6 -123 -33 -202 -113 -188 -190 -329 -495 -360 -780 -4 -33 -8 -71 -11 -85
-6 -34 -5 -289 0 -318 3 -13 8 -51 11 -85 4 -50 37 -218 60 -311 17 -70 91
-275 127 -356 46 -102 133 -316 167 -413 34 -99 71 -266 66 -300 -2 -12 -6
-40 -9 -62 -23 -168 -158 -357 -382 -535 -73 -58 -234 -171 -279 -196 -11 -6
-63 -35 -115 -66 -53 -30 -156 -85 -230 -122 -74 -37 -143 -71 -152 -76 -25
-14 -380 -170 -385 -170 -3 0 -19 -6 -36 -14 -18 -8 -79 -32 -137 -54 -58 -22
-145 -56 -195 -75 -201 -77 -638 -214 -898 -281 -53 -14 -101 -27 -105 -30 -4
-2 -25 -7 -47 -10 -22 -4 -58 -11 -80 -17 -22 -6 -48 -13 -58 -15 -10 -2 -26
-6 -35 -8 -18 -6 -285 -61 -342 -71 -19 -3 -53 -10 -75 -15 -22 -5 -53 -11
-70 -14 -163 -27 -216 -36 -255 -41 -25 -3 -52 -8 -60 -10 -8 -2 -40 -6 -70
-10 -30 -3 -64 -7 -76 -9 -12 -2 -45 -7 -75 -10 -30 -4 -72 -9 -94 -12 -22 -3
-51 -7 -65 -9 -14 -2 -56 -6 -95 -9 -38 -4 -90 -9 -115 -11 -74 -8 -264 -23
-370 -30 -390 -26 -1089 -26 -1380 0 -94 9 -176 16 -205 20 -67 8 -123 15
-170 20 -27 4 -75 10 -105 15 -30 5 -73 12 -95 16 -101 15 -304 56 -422 84
-70 18 -135 33 -143 35 -17 4 -122 34 -220 63 -136 41 -339 114 -470 169 -47
19 -94 39 -105 44 -134 56 -442 216 -590 307 -652 399 -1000 788 -1075 1204
-46 251 33 467 252 688 71 71 80 79 183 161 282 224 758 475 1230 646 334 122
753 238 1150 319 11 2 55 11 98 20 42 8 87 17 100 19 12 2 85 15 162 29 183
33 195 35 239 41 21 2 46 6 55 9 9 3 43 8 76 11 32 4 62 8 65 10 3 2 30 6 60
10 30 3 62 8 70 10 8 2 42 7 75 10 33 4 71 8 85 10 14 2 45 7 70 10 145 18
208 27 230 30 26 4 127 15 183 20 18 2 50 6 72 9 22 3 65 8 95 11 30 3 69 7
85 9 17 2 62 7 100 10 39 4 86 9 105 11 19 3 64 7 100 10 36 3 81 7 100 9 19
3 71 8 115 11 44 3 96 8 115 10 19 2 69 6 110 10 41 3 100 8 130 10 30 3 84 7
120 10 36 3 90 7 120 10 30 2 89 7 130 10 41 4 86 8 100 10 14 2 54 6 90 10
77 7 132 13 180 21 19 3 50 7 68 9 75 9 120 16 167 25 28 5 64 12 80 15 69 12
94 17 165 36 41 11 82 21 90 24 50 13 140 49 179 72 71 40 101 79 101 128 0
72 -72 127 -235 178 -74 23 -229 57 -335 72 -25 4 -56 8 -70 10 -14 2 -52 7
-85 10 -33 4 -71 8 -85 10 -14 2 -65 7 -115 10 -49 4 -101 8 -115 10 -22 3
-150 11 -315 20 -495 27 -1630 26 -1905 0 -19 -2 -73 -6 -120 -10 -47 -3 -96
-8 -110 -10 -14 -2 -56 -6 -95 -10 -38 -3 -81 -8 -95 -10 -24 -3 -62 -8 -167
-21 -27 -3 -55 -7 -63 -9 -8 -2 -35 -7 -60 -10 -25 -3 -108 -17 -185 -31 -186
-34 -183 -34 -235 -45 -25 -6 -56 -13 -70 -15 -14 -3 -54 -12 -90 -20 -36 -9
-73 -17 -83 -19 -10 -2 -84 -22 -165 -44 -1171 -319 -2141 -893 -2692 -1592
-265 -336 -445 -709 -539 -1119 -11 -47 -22 -101 -25 -120 -3 -19 -8 -46 -10
-59 -3 -13 -8 -49 -12 -80 -3 -31 -8 -63 -9 -72 -25 -130 -24 -549 0 -670 3
-13 8 -42 10 -63 39 -292 230 -706 450 -975 495 -604 1267 -1079 2155 -1326 3
-1 25 -7 50 -14 25 -7 52 -15 60 -17 161 -41 224 -55 345 -80 64 -13 176 -34
215 -40 25 -4 47 -8 50 -9 3 -1 32 -5 65 -10 33 -5 62 -9 65 -10 4 -1 69 -9
155 -20 164 -21 368 -39 590 -51 261 -15 968 -8 1240 11 28 2 86 6 130 9 44 3
103 8 130 11 28 2 77 7 110 10 33 3 83 8 110 11 59 5 209 23 245 29 14 2 48 6
75 10 67 8 115 15 145 20 14 2 45 7 70 10 58 8 270 44 290 50 8 2 35 7 60 10
25 3 74 13 110 21 36 8 81 17 100 20 19 3 60 12 90 19 30 8 89 21 130 30 104
23 94 20 210 50 58 15 112 28 120 30 18 4 97 26 200 55 1239 353 2081 779
2724 1380 231 216 390 403 597 701 85 124 237 412 317 604 70 166 174 486 197
605 2 10 12 60 23 111 11 52 23 110 26 129 3 19 7 44 10 55 2 11 7 39 11 63 4
23 10 40 15 37 15 -9 125 -36 175 -43 66 -9 344 -8 475 1 102 7 124 9 220 22
25 4 61 8 80 11 76 10 220 38 320 61 58 14 110 26 115 28 158 33 509 167 730
279 652 328 1056 739 1231 1251 23 69 63 246 73 325 5 41 8 140 7 220 -3 119
-7 157 -25 211 -35 102 -81 145 -168 155 -25 3 -46 -6 -100 -42z"/>
<path d="M21918 12896 c-83 -30 -170 -98 -273 -216 -200 -228 -433 -466 -550
-562 -102 -83 -272 -205 -400 -288 -367 -236 -993 -548 -1555 -775 -91 -36
-174 -70 -185 -75 -51 -23 -309 -114 -476 -168 -244 -80 -256 -83 -459 -137
-370 -98 -812 -228 -887 -261 -17 -8 -36 -14 -42 -14 -25 0 -366 -137 -487
-196 -224 -108 -374 -223 -420 -321 -22 -44 -15 -151 14 -213 72 -159 337
-341 652 -448 156 -53 314 -94 417 -107 13 -2 42 -6 65 -10 73 -11 91 -14 168
-20 41 -4 93 -9 115 -11 48 -4 549 -4 620 0 172 12 261 19 355 31 19 2 60 7
90 11 114 12 354 55 522 94 645 146 1247 419 1763 798 50 37 92 69 95 72 3 3
28 23 55 45 146 117 314 278 450 435 83 96 285 376 285 396 0 3 8 18 19 32 34
49 142 271 185 385 64 166 122 368 140 492 3 22 10 63 16 90 31 166 46 514 28
660 -28 223 -159 338 -320 281z"/>
<path d="M17110 7913 c-38 -6 -130 -42 -175 -68 -98 -56 -127 -72 -235 -126
-252 -126 -506 -227 -750 -299 -41 -12 -86 -26 -100 -31 -21 -7 -83 -22 -262
-65 -10 -2 -26 -6 -35 -8 -23 -5 -101 -18 -110 -18 -5 0 -19 -4 -32 -9 -13 -5
-40 -12 -60 -15 -20 -3 -44 -7 -53 -10 -10 -3 -28 -7 -40 -10 -13 -2 -34 -6
-48 -9 -14 -3 -41 -8 -60 -11 -89 -17 -163 -70 -179 -128 -10 -40 -5 -100 13
-135 80 -154 563 -368 921 -407 141 -16 490 -9 596 11 108 21 145 29 219 52
178 54 337 148 442 262 89 97 159 253 184 405 3 21 8 48 11 60 13 54 11 333
-3 386 -33 126 -124 191 -244 173z"/>
</g>
</svg>
